<?xml version="1.0" standalone="no"?>
<!DOCTYPE svg PUBLIC "-//W3C//DTD SVG 20010904//EN"
 "http://www.w3.org/TR/2001/REC-SVG-20010904/DTD/svg10.dtd">
<svg version="1.0" xmlns="http://www.w3.org/2000/svg"
 width="1000.000000pt" height="1000.000000pt" viewBox="0 0 1000.000000 1000.000000"
 preserveAspectRatio="xMidYMid meet">

<g transform="translate(0.000000,1000.000000) scale(0.100000,-0.100000)"
fill="#000000" stroke="none">
<path d="M0 5000 l0 -5000 5000 0 5000 0 0 5000 0 5000 -5000 0 -5000 0 0
-5000z m5231 3031 c107 -38 613 -219 1124 -401 2813 -1003 3028 -1080 3033
-1084 3 -4 20 -2277 22 -2897 l0 -226 -42 -16 c-41 -15 -745 -270 -1743 -632
-253 -91 -743 -269 -1090 -395 -346 -125 -818 -296 -1047 -379 l-417 -151
-193 69 c-106 38 -647 232 -1203 430 -2536 904 -2948 1051 -2952 1055 -4 4
-21 2251 -23 2897 l0 227 28 10 c15 6 160 59 322 117 162 59 450 163 640 232
190 69 449 162 575 208 127 46 534 193 905 328 371 135 821 298 1000 363 179
64 444 161 590 215 146 53 268 97 271 98 3 1 93 -30 200 -68z"/>
<path d="M4485 7856 c-592 -215 -1859 -675 -2500 -907 -715 -258 -1238 -448
-1241 -452 -4 -4 15 -3060 20 -3064 3 -3 447 -162 2236 -800 393 -140 1017
-362 1385 -494 369 -131 678 -239 687 -239 14 0 371 126 678 240 58 21 310
113 560 203 250 91 716 259 1035 375 319 116 744 270 945 342 739 268 1073
389 1076 393 2 1 -1 648 -6 1437 -5 789 -10 1478 -10 1531 l0 96 -42 16 c-24
9 -270 97 -548 196 -278 98 -827 294 -1220 434 -393 141 -1070 382 -1505 537
-434 155 -832 297 -884 316 -52 19 -103 34 -115 34 -12 -1 -259 -88 -551 -194z
m1057 -52 c271 -96 727 -259 1013 -361 286 -102 651 -231 810 -288 160 -57
418 -149 575 -205 157 -55 508 -180 780 -277 272 -97 498 -179 501 -182 4 -3
10 -679 14 -1501 l7 -1495 -94 -34 c-101 -36 -1012 -366 -1653 -598 -220 -80
-481 -174 -580 -210 -99 -35 -259 -93 -355 -128 -96 -35 -305 -111 -465 -168
-159 -58 -454 -164 -654 -237 l-364 -132 -301 107 c-165 59 -620 221 -1011
360 -390 139 -782 279 -870 310 -88 31 -416 148 -730 260 -314 112 -725 258
-915 325 -190 67 -348 125 -351 129 -4 3 -10 679 -14 1501 l-7 1495 219 79
c120 44 310 112 423 153 113 41 284 103 380 138 96 34 501 181 900 325 399
144 822 297 940 340 425 154 1028 373 1155 420 72 26 135 48 142 49 6 0 233
-78 505 -175z"/>
<path d="M4825 7764 c-110 -40 -249 -91 -310 -113 -468 -169 -1299 -470 -1385
-501 -58 -22 -188 -69 -290 -105 -102 -37 -338 -122 -525 -190 -761 -276
-1154 -418 -1227 -443 l-78 -27 6 -1260 c4 -693 9 -1327 13 -1409 l6 -150 810
-288 c446 -158 1026 -365 1290 -459 264 -94 611 -218 770 -274 160 -57 488
-174 730 -260 418 -149 442 -156 475 -145 19 7 319 115 665 240 347 126 763
276 925 335 162 59 448 162 635 230 187 68 579 209 870 315 292 105 610 221
707 256 97 35 182 64 187 64 12 0 4 2375 -8 2669 l-6 154 -445 159 c-245 87
-706 251 -1025 364 -319 114 -659 235 -755 269 -354 127 -1510 539 -1659 591
-84 30 -158 54 -165 53 -6 0 -101 -34 -211 -75z m-250 -501 c102 -253 121
-290 150 -297 57 -14 20 -26 -80 -26 -63 0 -105 4 -105 10 0 6 6 10 13 10 6 0
18 4 26 9 13 8 12 17 -4 65 l-19 56 -86 0 -85 0 -18 -49 c-22 -63 -22 -68 8
-75 14 -4 25 -11 25 -16 0 -11 -153 -14 -163 -3 -4 3 6 14 22 24 23 14 45 57
122 238 68 161 98 221 110 221 12 0 35 -46 84 -167z m535 157 c25 -7 41 -7 57
2 13 6 25 9 28 6 3 -3 8 -42 12 -87 7 -97 -8 -108 -47 -34 -33 62 -70 88 -125
88 -90 0 -147 -82 -148 -213 -1 -89 19 -140 67 -176 65 -49 147 -42 206 19 33
34 60 45 60 25 0 -23 -84 -100 -119 -110 -56 -15 -141 -12 -186 9 -49 22 -98
76 -116 128 -20 56 -16 159 8 213 22 49 78 104 127 126 37 16 128 18 176 4z
m480 0 c25 -7 41 -7 57 2 13 6 25 9 28 6 3 -3 8 -42 12 -87 7 -97 -8 -108 -47
-34 -33 62 -70 88 -125 88 -90 0 -147 -82 -148 -213 -1 -89 19 -140 67 -176
65 -49 147 -42 206 19 33 34 60 45 60 25 0 -23 -84 -100 -119 -110 -56 -15
-141 -12 -186 9 -49 22 -98 76 -116 128 -20 56 -16 159 8 213 22 49 78 104
127 126 37 16 128 18 176 4z m-2392 -642 c7 -7 12 -20 12 -29 0 -9 13 -27 30
-40 16 -13 30 -31 30 -41 0 -9 14 -28 30 -41 17 -14 30 -31 30 -37 0 -7 14
-25 30 -40 17 -15 30 -34 30 -42 0 -8 14 -27 30 -43 17 -16 30 -34 30 -40 0
-6 23 -33 50 -59 28 -26 50 -53 50 -59 0 -7 32 -43 70 -81 39 -38 70 -74 70
-80 0 -14 551 -566 565 -566 6 0 37 -27 70 -60 33 -33 64 -60 70 -60 6 0 38
-27 71 -60 32 -33 64 -60 71 -60 6 0 37 -27 69 -60 31 -33 63 -60 71 -60 8 0
26 -13 40 -30 13 -16 31 -30 38 -30 7 0 30 -18 51 -40 21 -22 43 -40 49 -40 5
0 24 -14 42 -30 18 -17 37 -30 44 -30 6 0 19 -8 28 -18 9 -9 28 -23 44 -31 15
-8 27 -18 27 -23 0 -20 53 -6 82 22 17 16 36 30 43 30 6 0 24 14 40 30 16 17
34 30 41 30 6 0 28 18 48 40 20 22 42 40 48 40 7 1 31 19 53 40 22 22 45 40
50 40 6 0 29 18 50 40 21 22 43 40 48 40 4 0 32 23 60 50 28 28 56 50 62 50 6
0 42 32 80 70 38 39 74 70 79 70 15 0 626 612 626 627 0 6 27 37 60 69 33 31
60 62 60 68 0 7 27 38 60 71 33 33 60 65 60 73 0 7 14 25 30 39 17 13 30 32
30 40 0 8 14 28 30 43 17 15 30 32 30 38 0 5 14 23 30 40 17 18 30 36 30 41 0
12 61 81 72 81 4 0 8 -18 8 -40 0 -22 -4 -40 -10 -40 -5 0 -10 -13 -10 -30 0
-16 -4 -30 -10 -30 -5 0 -10 -11 -10 -25 0 -13 -9 -40 -20 -60 -11 -20 -20
-41 -20 -48 0 -18 -24 -67 -32 -67 -5 0 -8 -6 -8 -13 0 -17 -42 -102 -62 -125
-8 -9 -22 -34 -32 -54 -9 -20 -21 -40 -26 -43 -6 -3 -19 -25 -29 -48 -11 -23
-31 -53 -45 -66 -14 -14 -26 -30 -26 -36 0 -7 -9 -20 -20 -30 -11 -10 -20 -23
-20 -30 0 -6 -18 -29 -40 -50 -22 -21 -40 -44 -40 -50 0 -6 -22 -33 -50 -60
-27 -27 -50 -54 -50 -60 0 -13 -512 -525 -525 -525 -6 0 -42 -31 -80 -70 -38
-38 -74 -70 -80 -70 -6 0 -33 -22 -60 -50 -27 -27 -54 -50 -60 -50 -6 0 -24
-13 -40 -30 -16 -16 -34 -30 -40 -30 -6 0 -24 -13 -40 -30 -16 -16 -34 -30
-40 -30 -6 0 -29 -18 -50 -40 -21 -22 -44 -40 -50 -40 -7 0 -19 -8 -29 -19
-18 -20 -15 -25 37 -51 15 -7 27 -17 27 -22 0 -4 6 -8 13 -8 8 0 22 -9 32 -20
10 -11 23 -20 30 -20 6 0 20 -8 31 -17 10 -10 31 -24 47 -32 15 -8 27 -18 27
-23 0 -4 6 -8 14 -8 7 0 26 -12 42 -28 16 -15 45 -35 65 -44 20 -10 42 -24 49
-33 7 -8 18 -15 24 -15 7 0 21 -8 32 -17 10 -10 31 -24 47 -32 15 -8 27 -18
27 -23 0 -4 8 -8 18 -8 26 0 68 46 147 162 24 36 28 38 77 38 96 0 140 -76 79
-137 -15 -16 -31 -39 -35 -51 -4 -12 -11 -22 -16 -22 -5 0 -17 -14 -26 -32 -9
-18 -23 -38 -30 -45 -24 -24 0 -51 52 -58 28 -4 159 -69 204 -101 49 -35 120
-106 120 -120 0 -6 9 -19 20 -29 11 -10 20 -25 20 -33 0 -23 31 -41 71 -42 34
0 110 -32 144 -60 8 -7 23 -29 32 -49 28 -62 41 -71 100 -71 29 0 53 -4 53
-10 0 -5 8 -10 17 -10 9 0 32 -14 50 -32 31 -30 33 -37 33 -96 0 -61 -2 -66
-37 -98 -20 -19 -43 -34 -50 -34 -7 0 -13 -4 -13 -10 0 -14 -106 -12 -133 2
-30 18 -107 90 -107 102 0 20 -34 46 -62 46 -54 0 -137 68 -169 138 -19 42
-20 42 -74 42 -29 0 -57 5 -60 10 -3 6 -14 10 -23 10 -22 0 -157 67 -172 85
-7 8 -18 15 -24 15 -15 0 -114 101 -130 131 -14 29 -56 39 -56 13 0 -9 -13
-30 -30 -46 -16 -15 -30 -33 -30 -38 0 -5 -19 -30 -42 -55 -51 -55 -90 -60
-131 -17 -22 23 -27 37 -27 78 0 43 4 55 30 79 17 16 30 33 30 39 0 5 15 25
32 43 26 27 30 37 22 51 -12 18 -83 69 -168 120 -15 9 -42 27 -60 39 -17 12
-40 27 -51 32 -12 5 -27 16 -34 25 -7 9 -19 16 -26 16 -6 0 -20 9 -30 20 -10
11 -23 20 -30 20 -7 0 -20 9 -30 20 -10 11 -23 20 -30 20 -7 0 -20 9 -30 20
-10 11 -23 20 -30 20 -6 0 -24 14 -40 30 -16 17 -33 30 -39 30 -5 0 -20 10
-33 22 l-23 22 -33 -32 c-18 -18 -38 -32 -43 -32 -6 0 -23 -13 -39 -30 -16
-16 -34 -30 -40 -30 -7 0 -20 -9 -30 -20 -10 -11 -23 -20 -30 -20 -7 0 -20 -9
-30 -20 -10 -11 -23 -20 -30 -20 -7 0 -20 -9 -30 -20 -10 -11 -23 -20 -30 -20
-7 0 -20 -9 -30 -20 -10 -11 -24 -20 -30 -20 -7 0 -19 -7 -26 -17 -8 -9 -32
-25 -54 -35 -22 -10 -60 -34 -85 -53 -25 -19 -54 -39 -65 -44 -45 -19 -47 -35
-10 -71 19 -19 35 -41 35 -49 1 -9 14 -27 30 -41 26 -21 30 -31 30 -74 0 -62
-35 -106 -84 -106 -31 0 -96 51 -96 76 0 7 -11 22 -25 35 -14 13 -33 39 -41
57 -16 30 -54 46 -54 21 0 -15 -131 -149 -145 -149 -7 0 -18 -7 -25 -15 -17
-21 -151 -85 -178 -85 -12 0 -22 -4 -22 -10 0 -5 -25 -10 -55 -10 -54 0 -55 0
-74 -42 -29 -64 -115 -138 -160 -138 -11 0 -47 -29 -82 -65 -34 -36 -76 -72
-92 -80 -34 -17 -137 -20 -137 -5 0 6 -7 10 -15 10 -20 0 -65 45 -65 65 0 8
-4 15 -10 15 -5 0 -10 23 -10 50 0 28 5 50 10 50 6 0 10 8 10 17 0 23 39 63
62 63 10 0 18 5 18 10 0 6 25 10 56 10 55 0 84 14 84 41 0 22 103 119 127 119
12 0 25 4 28 10 3 6 27 10 52 10 36 0 46 4 50 20 3 11 9 20 14 20 5 0 9 8 9
18 0 17 139 157 196 197 45 31 96 57 101 51 3 -3 19 2 35 10 16 8 33 12 38 9
14 -9 50 13 50 31 0 8 -7 17 -15 20 -8 3 -17 15 -21 26 -3 11 -19 34 -35 51
-16 16 -29 35 -29 42 0 7 -9 20 -20 30 -14 13 -20 31 -20 63 0 63 20 82 85 82
44 0 55 -4 79 -29 15 -16 28 -33 28 -38 -1 -4 10 -20 24 -35 13 -15 24 -32 24
-36 0 -12 54 -62 67 -62 16 0 70 29 83 45 7 8 18 15 24 15 6 0 18 9 26 20 8
11 22 20 31 20 9 0 24 9 34 20 10 11 24 20 32 20 7 0 13 4 13 9 0 5 15 16 34
25 18 8 39 22 46 31 7 8 18 15 24 15 6 0 18 9 26 20 8 11 22 20 31 20 9 0 27
13 40 30 13 16 32 30 42 30 9 0 17 4 17 8 0 5 12 15 28 22 55 28 56 31 15 72
-20 21 -42 38 -48 38 -7 0 -20 9 -30 20 -10 11 -23 20 -29 20 -7 0 -34 23 -61
50 -27 28 -54 50 -61 50 -6 0 -19 9 -29 20 -10 11 -23 20 -29 20 -6 0 -43 32
-81 70 -38 39 -74 70 -80 70 -6 0 -42 32 -80 70 -38 39 -74 70 -80 70 -13 0
-445 432 -445 445 0 6 -27 37 -60 70 -33 33 -60 64 -60 70 0 6 -13 24 -30 40
-16 16 -30 34 -30 40 0 6 -13 24 -30 40 -16 16 -30 34 -30 40 0 7 -9 20 -20
30 -11 10 -20 24 -20 30 0 7 -7 18 -15 25 -9 7 -23 29 -32 49 -9 20 -23 44
-31 53 -26 31 -162 312 -162 335 0 13 -4 23 -10 23 -5 0 -10 14 -10 30 0 17
-4 30 -10 30 -5 0 -10 14 -10 30 0 17 -4 30 -10 30 -5 0 -10 18 -10 40 0 41 7
49 28 28z m2211 -199 c25 -9 38 -9 57 1 13 8 26 11 29 8 3 -3 8 -42 12 -87 5
-69 4 -81 -9 -81 -9 0 -26 21 -39 47 -31 62 -68 88 -124 88 -78 0 -128 -57
-146 -165 -15 -92 2 -161 51 -210 64 -64 155 -62 221 6 32 33 59 44 59 24 0
-19 -75 -93 -107 -107 -39 -16 -123 -17 -176 -2 -76 21 -138 102 -152 200 -16
107 58 242 150 274 49 17 131 19 174 4z m491 1 c25 -7 41 -7 57 2 13 6 25 9
28 6 3 -3 8 -42 12 -87 7 -97 -8 -108 -47 -34 -33 62 -70 88 -125 88 -90 0
-149 -84 -149 -214 1 -119 48 -189 139 -207 41 -7 108 20 139 57 22 26 56 40
56 22 0 -16 -46 -72 -78 -94 -46 -31 -153 -39 -217 -15 -124 48 -178 214 -114
351 51 109 176 161 299 125z m-1509 -10 c19 -5 48 -24 65 -41 24 -25 29 -39
29 -79 0 -40 -5 -54 -28 -78 l-27 -28 26 -14 c79 -43 67 -167 -21 -210 -36
-17 -62 -20 -203 -20 -150 0 -203 9 -133 23 38 8 41 22 41 217 0 195 -3 209
-41 217 -16 3 -29 9 -29 14 0 12 277 11 321 -1z m320 -32 c18 -24 76 -97 129
-162 l95 -120 3 125 c3 153 0 168 -38 176 -60 11 -28 23 65 23 57 0 95 -4 95
-10 0 -5 -9 -10 -19 -10 -48 0 -51 -17 -51 -251 0 -202 -1 -219 -17 -219 -11
0 -74 71 -158 177 l-140 177 -3 -134 c-3 -165 -1 -179 38 -187 60 -11 28 -23
-65 -23 -98 0 -119 9 -62 25 l32 10 3 189 c3 208 0 218 -59 231 -53 12 -30 25
45 25 l74 0 33 -42z m-1966 -468 c393 -128 676 -429 782 -831 24 -94 27 -120
27 -279 0 -159 -3 -185 -28 -279 -112 -425 -424 -737 -847 -848 -94 -24 -121
-27 -274 -27 -153 0 -180 3 -274 27 -422 111 -735 424 -847 848 -25 94 -28
120 -28 279 0 159 3 184 28 280 106 403 396 711 781 828 136 42 123 41 365 38
212 -3 216 -3 315 -36z m5193 -54 c573 -122 968 -628 939 -1201 -15 -299 -127
-553 -336 -765 -101 -102 -186 -164 -308 -224 -165 -83 -294 -115 -483 -123
-451 -18 -876 233 -1080 637 -92 183 -124 324 -124 535 1 204 35 349 123 523
171 338 510 578 894 632 85 12 287 4 375 -14z m-4286 -2966 c36 -91 67 -153
83 -167 14 -12 25 -25 25 -28 0 -3 -34 -5 -75 -5 -74 0 -93 9 -56 26 18 8 18
11 4 47 -15 37 -16 37 -72 37 -52 0 -59 -2 -69 -25 -16 -35 -15 -54 3 -61 33
-13 12 -24 -45 -24 -58 0 -79 13 -41 25 18 6 37 43 117 233 26 63 43 92 53 90
9 -2 39 -64 73 -148z m2898 130 c0 -8 3 -32 6 -52 5 -30 3 -38 -8 -38 -8 0
-20 11 -26 25 -26 56 -116 69 -160 22 -96 -102 -9 -303 112 -257 26 9 27 13
24 67 -3 49 -7 60 -25 68 -40 17 -25 25 52 25 43 0 75 -4 75 -10 0 -5 -6 -10
-14 -10 -20 0 -26 -23 -26 -94 l0 -63 -39 -13 c-56 -18 -164 -9 -198 16 -52
39 -73 81 -73 148 0 74 28 127 86 163 34 21 49 23 126 21 70 -2 88 -6 88 -18z
m-2547 -2 c33 -17 46 -39 47 -77 0 -36 -31 -81 -57 -81 -21 0 -16 -13 28 -71
43 -58 78 -82 112 -77 21 3 22 7 25 145 2 135 2 142 -18 148 -38 12 -20 25 33
25 l54 0 53 -115 c29 -63 56 -115 60 -115 3 0 30 52 60 115 l53 115 53 0 c57
0 68 -9 32 -25 -22 -10 -23 -15 -23 -145 0 -130 1 -135 23 -145 40 -18 23 -25
-58 -25 -81 0 -98 7 -57 25 20 9 22 17 24 110 l2 100 -56 -117 c-31 -65 -61
-118 -68 -118 -6 0 -36 53 -67 118 l-57 117 2 -100 c2 -93 4 -101 25 -110 43
-19 21 -25 -95 -25 l-118 0 -53 75 c-29 41 -58 75 -63 75 -6 0 -9 -26 -7 -62
3 -57 5 -63 26 -66 49 -7 6 -22 -64 -22 -70 0 -98 11 -55 23 24 6 27 28 23
176 -3 102 -5 114 -23 118 -10 3 -19 9 -19 14 0 13 198 11 223 -3z m727 4 c0
-5 -9 -13 -20 -18 -19 -9 -18 -12 18 -66 20 -32 39 -58 42 -58 3 0 20 26 39
57 31 51 33 57 18 68 -28 20 -20 25 48 25 69 0 82 -9 40 -28 -14 -7 -48 -46
-75 -88 -46 -70 -50 -82 -50 -136 0 -53 2 -59 25 -68 14 -5 25 -12 25 -15 0
-3 -36 -5 -80 -5 -75 0 -105 11 -60 23 17 4 20 14 20 61 0 50 -5 63 -55 140
-30 46 -63 87 -75 91 -43 14 -16 25 60 25 44 0 80 -4 80 -8z m610 -1 c0 -5 -9
-11 -19 -14 -19 -5 -19 -9 12 -101 17 -53 34 -96 38 -96 3 0 14 26 24 59 14
48 15 65 6 94 -7 20 -21 39 -32 42 -41 13 -15 25 56 25 43 0 75 -4 75 -10 0
-5 -6 -10 -14 -10 -27 0 -26 -17 8 -116 l33 -98 31 87 c36 99 38 115 17 123
-32 13 -13 24 40 24 30 0 55 -2 55 -5 0 -3 -8 -13 -18 -23 -10 -10 -42 -86
-71 -170 -32 -93 -58 -152 -66 -152 -13 0 -33 46 -65 145 l-13 39 -32 -89
c-18 -50 -39 -91 -47 -93 -10 -2 -30 42 -67 150 -29 84 -62 160 -72 170 -11 9
-19 19 -19 22 0 3 32 6 70 6 39 0 70 -4 70 -9z m695 -82 c39 -49 78 -99 87
-112 17 -21 18 -19 18 76 0 91 -2 99 -20 104 -41 11 -18 23 45 23 67 0 81 -8
43 -25 -22 -10 -23 -15 -26 -168 -2 -120 -6 -158 -15 -155 -6 3 -55 57 -107
122 l-95 118 -5 -79 c-7 -97 -2 -124 21 -130 41 -11 16 -23 -46 -23 -37 0 -65
4 -65 10 0 6 7 10 15 10 26 0 35 38 35 154 0 107 -1 116 -22 130 -28 20 -72
21 -87 2 -8 -9 -11 -56 -9 -142 3 -123 4 -129 26 -139 40 -18 23 -25 -58 -25
-81 0 -98 7 -57 25 21 10 22 16 25 147 l3 137 -26 7 c-59 15 -16 24 113 23
l137 0 70 -90z"/>
<path d="M4457 7250 c-9 -19 -25 -56 -36 -82 l-20 -48 69 0 c79 0 76 -13 26
105 l-25 60 -14 -35z"/>
<path d="M4238 6543 c-15 -4 -18 -17 -18 -88 0 -76 2 -84 21 -90 39 -13 107 4
129 32 61 78 -26 174 -132 146z"/>
<path d="M4228 6324 c-5 -4 -8 -47 -8 -95 l0 -88 34 -7 c98 -18 177 51 145
128 -6 16 -25 36 -41 44 -34 18 -120 30 -130 18z"/>
<path d="M2250 6070 c-46 -6 -110 -21 -155 -34 -5 -1 -28 -8 -51 -14 -22 -7
-77 -30 -122 -52 -317 -155 -543 -442 -606 -772 -43 -224 -43 -248 1 -483 28
-148 119 -336 227 -467 88 -106 301 -278 326 -263 6 3 10 2 10 -3 0 -12 117
-65 200 -91 226 -70 538 -56 752 34 182 77 313 175 438 325 129 156 201 315
239 530 28 156 21 299 -23 470 -98 389 -409 697 -801 795 -87 22 -139 28 -245
31 -74 1 -160 -1 -190 -6z m161 -101 c11 -6 29 -19 40 -30 13 -13 33 -19 65
-19 127 0 357 -91 485 -193 26 -20 43 -26 60 -22 17 4 36 -1 59 -17 32 -22 35
-28 38 -81 3 -51 1 -57 -17 -57 -11 0 -28 10 -38 23 -42 51 -51 53 -88 17 -19
-19 -35 -37 -35 -42 0 -14 41 -29 61 -23 19 6 20 8 4 26 -10 10 -15 25 -12 34
9 22 56 -2 64 -33 7 -31 -6 -54 -39 -66 -34 -12 -72 -1 -108 32 l-31 27 26 29
c27 32 30 47 15 77 -15 27 -32 24 -24 -5 8 -31 -12 -43 -37 -20 -26 23 -24 50
6 80 22 22 23 25 8 31 -9 4 -18 2 -20 -3 -2 -5 -16 -31 -31 -59 -33 -61 -54
-65 -63 -12 -6 39 -33 76 -46 64 -3 -4 2 -13 12 -21 25 -18 10 -36 -31 -36
-43 0 -44 -14 -1 -31 57 -22 176 -110 232 -171 58 -62 116 -157 152 -247 12
-31 22 -49 22 -39 1 9 15 28 32 42 31 26 31 27 13 47 -13 15 -26 19 -45 15
-35 -7 -44 15 -24 54 8 16 15 42 15 58 0 36 25 49 50 27 25 -22 43 -20 29 4
-14 21 -5 54 14 49 6 -2 32 -44 57 -94 63 -124 94 -255 94 -404 1 -117 -8
-215 -23 -238 -10 -17 -41 -4 -41 17 0 10 -10 17 -27 18 -16 2 -46 5 -68 7
-44 3 -63 33 -27 43 17 4 18 9 9 39 -14 45 3 81 46 99 37 16 66 3 46 -21 -9
-11 -7 -14 10 -14 11 0 24 0 29 0 8 0 12 59 3 64 -3 2 -35 0 -70 -5 -48 -7
-67 -6 -72 3 -12 19 10 38 42 38 31 0 39 17 14 26 -17 7 -20 40 -5 49 15 9 12
25 -5 25 -8 0 -15 -9 -15 -20 0 -31 -33 -24 -53 11 -22 39 -33 31 -18 -12 6
-18 11 -83 11 -144 0 -91 -5 -130 -25 -199 -27 -93 -63 -171 -103 -223 -25
-34 -20 -45 23 -40 14 1 19 -3 17 -15 -1 -9 6 -19 18 -23 34 -11 30 -68 -8
-107 -23 -25 -27 -26 -42 -13 -26 24 -46 19 -45 -12 0 -24 -4 -28 -32 -31 -32
-3 -32 -4 -17 -27 20 -30 10 -47 -22 -39 -16 4 -24 2 -24 -6 0 -20 -72 -80
-96 -80 -13 0 -30 7 -39 16 -15 15 -15 14 -10 -9 9 -33 -8 -42 -40 -21 -24 16
-25 15 -25 -4 0 -25 -35 -39 -55 -22 -33 27 -10 70 37 70 15 0 28 5 28 11 0
13 -35 6 -89 -18 -20 -8 -30 -17 -23 -20 20 -8 14 -51 -10 -67 -13 -8 -39 -16
-58 -18 -28 -2 -35 1 -38 17 -4 21 -29 45 -46 45 -6 0 -4 -5 4 -10 11 -7 12
-12 3 -21 -16 -16 -46 -7 -59 19 -11 23 -12 22 -21 -15 -14 -59 -39 -51 -35
11 3 37 1 47 -10 44 -8 -3 -13 -20 -13 -44 0 -35 -3 -39 -27 -42 -29 -3 -36 6
-17 25 8 8 8 19 1 40 -9 25 -11 25 -11 6 -1 -19 -7 -23 -30 -23 -22 0 -32 -6
-37 -22 -10 -32 24 -54 95 -62 60 -7 76 -18 45 -30 -8 -3 -13 -10 -10 -15 11
-17 -6 -40 -34 -46 -37 -8 -90 18 -90 45 0 11 3 19 8 18 4 -2 8 1 10 7 2 5 -1
11 -7 13 -6 2 -18 -13 -27 -33 -16 -40 -39 -42 -39 -4 0 18 -6 25 -25 27 -14
2 -31 11 -38 20 -11 15 -13 15 -19 -7 -5 -20 -10 -22 -37 -17 -17 4 -36 13
-42 21 -16 21 -27 19 -21 -5 8 -29 -15 -25 -47 9 -22 23 -26 33 -18 47 8 14 5
22 -13 36 -16 12 -21 25 -18 43 3 14 9 25 13 25 5 0 37 -16 72 -36 54 -32 72
-37 131 -38 70 -1 81 5 47 26 -24 15 -27 48 -4 48 14 0 14 3 4 15 -22 27 -3
28 78 6 94 -25 267 -34 267 -13 0 9 -23 14 -80 17 -115 5 -207 29 -315 83 -79
39 -110 62 -185 137 -150 149 -213 289 -223 488 -6 148 15 253 80 381 126 252
398 412 688 408 62 -1 173 -21 213 -37 10 -4 17 -3 17 4 0 6 -4 11 -9 11 -5 0
-13 10 -16 21 -5 16 -9 18 -15 9 -11 -18 -40 -5 -40 17 0 29 -29 63 -52 63
l-22 0 22 -21 c12 -11 20 -24 17 -30 -11 -16 -44 -10 -65 13 l-20 22 -24 -23
c-15 -14 -42 -25 -69 -28 l-44 -5 -6 40 c-5 27 -15 45 -32 56 -31 20 -45 20
-45 0 0 -8 4 -13 9 -10 12 8 34 -21 26 -34 -10 -16 -50 -12 -68 8 -8 9 -17 29
-19 44 -2 19 -7 25 -15 20 -9 -6 -8 -23 7 -71 25 -78 25 -81 1 -81 -16 0 -24
13 -37 58 -22 71 -30 81 -49 61 -13 -13 -12 -19 15 -49 33 -40 37 -65 13 -92
-26 -29 -47 -23 -39 12 5 29 -10 70 -26 70 -5 0 -8 -10 -8 -22 0 -12 -7 -29
-16 -39 -12 -13 -13 -22 -5 -37 15 -28 -9 -48 -38 -33 -11 6 -38 11 -61 11
-48 0 -58 16 -37 60 17 33 11 38 -18 16 -36 -26 -62 3 -27 31 84 66 237 132
368 160 62 13 84 21 87 35 9 32 71 47 108 27z m-630 -330 c3 -15 25 -45 48
-68 46 -46 49 -56 21 -71 -11 -6 -20 -18 -20 -26 0 -12 -6 -15 -25 -10 -21 5
-25 3 -25 -18 0 -38 -30 -67 -77 -73 -35 -4 -44 -2 -49 12 -4 10 -1 21 7 26
11 7 10 11 -6 23 -27 21 -29 20 -45 -9 -16 -30 -12 -34 50 -60 63 -26 73 -35
59 -51 -6 -8 -24 -14 -39 -14 -28 0 -69 -35 -56 -47 4 -5 12 0 17 9 12 21 39
12 39 -12 0 -25 -27 -50 -52 -50 -28 0 -58 28 -58 54 0 19 -3 18 -25 -9 -31
-38 -31 -49 -2 -41 14 3 32 -1 43 -9 10 -8 31 -15 46 -15 26 0 46 -16 35 -27
-3 -2 -25 -6 -49 -8 -24 -2 -44 -4 -45 -4 -1 -1 5 -13 13 -28 12 -25 12 -29
-1 -39 -23 -17 -18 -24 15 -24 28 0 51 -22 37 -36 -3 -3 -36 -7 -74 -7 -38 -1
-68 -6 -68 -12 0 -6 27 -9 68 -7 60 4 67 2 67 -15 0 -10 -5 -24 -12 -31 -9 -9
-9 -17 1 -36 18 -33 5 -80 -30 -110 -30 -26 -65 -25 -55 0 3 8 4 14 2 14 -3 0
-12 3 -22 7 -15 5 -16 2 -11 -30 4 -27 2 -37 -10 -42 -27 -10 -32 6 -45 117
-27 249 54 522 209 705 26 31 39 54 33 58 -18 11 -60 -24 -67 -55 -7 -37 -29
-58 -45 -42 -21 21 24 116 65 132 12 5 46 8 76 7 50 -2 55 -4 62 -28z m-231
-970 c27 -21 30 -21 54 -5 38 24 45 20 33 -20 -10 -33 -9 -38 12 -54 31 -22
19 -43 -21 -38 -26 4 -32 0 -46 -29 -20 -42 -29 -42 -38 2 -6 32 -9 35 -40 35
-41 0 -43 13 -8 37 23 15 25 21 20 55 -3 21 -4 38 -1 38 3 0 19 -10 35 -21z
m1695 -5 c37 24 44 20 32 -20 -10 -33 -9 -37 19 -59 25 -20 27 -24 11 -30 -9
-4 -28 -4 -42 -1 -22 6 -28 2 -41 -29 -18 -44 -30 -44 -38 0 -6 32 -10 35 -41
35 -41 0 -45 13 -9 36 19 13 25 25 24 48 -3 48 -2 49 30 26 29 -20 32 -21 55
-6z m-1309 -323 c23 -17 60 -41 83 -54 l41 -24 -24 -26 c-13 -15 -27 -36 -31
-47 -7 -23 -35 -27 -35 -5 0 9 7 29 15 44 16 32 9 50 -11 23 -8 -11 -27 -17
-58 -18 -42 -1 -47 1 -53 25 -3 14 -10 32 -15 38 -16 20 -1 45 22 38 24 -8 27
10 3 19 -10 4 -26 -3 -44 -20 -18 -18 -34 -24 -45 -20 -15 6 -13 11 15 40 19
20 30 39 26 46 -5 8 -12 5 -22 -9 -8 -12 -25 -21 -38 -21 -24 0 -85 44 -85 61
0 5 17 27 38 48 l37 39 70 -72 c39 -41 89 -87 111 -105z m975 -232 c8 -15 4
-24 -16 -45 -22 -22 -33 -25 -61 -21 -19 3 -34 2 -34 -4 0 -5 -11 -21 -25 -34
-27 -28 -80 -33 -110 -12 -24 18 -11 41 15 27 10 -5 31 -9 47 -9 23 2 24 2 5
6 -27 5 -49 40 -33 56 7 7 14 7 23 0 7 -6 27 -10 45 -10 25 0 33 5 38 24 6 26
59 55 82 46 8 -3 18 -14 24 -24z m-451 -99 c50 -25 56 -37 34 -61 -20 -23 -63
-25 -90 -4 -18 14 -18 16 -1 29 15 12 15 15 2 26 -15 13 -12 30 6 30 5 0 27
-9 49 -20z m177 -3 c24 -24 -14 -56 -67 -55 -46 0 -58 11 -38 35 10 13 10 17
1 20 -7 3 -13 9 -13 15 0 16 99 4 117 -15z"/>
<path d="M2355 5930 c-3 -6 1 -7 9 -4 18 7 21 14 7 14 -6 0 -13 -4 -16 -10z"/>
<path d="M2373 5883 c-13 -2 -23 -11 -23 -19 0 -16 16 -19 25 -4 12 19 63 11
82 -13 16 -22 19 -23 44 -8 24 13 30 13 55 1 16 -8 32 -16 37 -18 4 -2 7 6 7
17 0 13 -8 22 -22 25 -125 27 -153 29 -205 19z"/>
<path d="M2647 5843 c-4 -3 -7 -17 -7 -31 l0 -24 19 23 c18 23 19 39 2 39 -4
0 -11 -3 -14 -7z"/>
<path d="M2360 5808 c0 -42 5 -45 38 -22 29 20 30 48 1 39 -14 -5 -25 -2 -30
6 -6 9 -9 1 -9 -23z"/>
<path d="M2690 5783 c-21 -27 -23 -54 -4 -60 6 -2 16 8 22 22 8 17 20 25 37
25 30 0 33 15 6 30 -29 15 -37 13 -61 -17z"/>
<path d="M2010 5790 c0 -5 9 -10 21 -10 11 0 17 5 14 10 -3 6 -13 10 -21 10
-8 0 -14 -4 -14 -10z"/>
<path d="M2820 5754 c0 -31 23 -28 28 4 2 15 -2 22 -12 22 -11 0 -16 -9 -16
-26z"/>
<path d="M1990 5734 c0 -8 5 -12 10 -9 6 4 8 11 5 16 -9 14 -15 11 -15 -7z"/>
<path d="M1945 5690 c3 -5 8 -10 11 -10 2 0 4 5 4 10 0 6 -5 10 -11 10 -5 0
-7 -4 -4 -10z"/>
<path d="M2260 5654 c-107 -22 -223 -78 -300 -144 -32 -27 -33 -30 -12 -30 28
0 29 -27 2 -80 -11 -22 -17 -40 -14 -40 15 0 55 58 65 95 6 22 21 51 32 63 31
34 95 69 140 77 34 7 37 5 37 -15 0 -34 -59 -101 -107 -122 -27 -12 -52 -33
-67 -56 -13 -20 -22 -39 -20 -41 2 -2 23 14 48 36 95 84 193 117 346 117 151
1 231 -27 348 -118 122 -94 194 -227 208 -384 7 -71 -10 -207 -29 -230 -5 -7
-7 -15 -4 -18 3 -3 10 4 17 15 14 28 38 27 43 -1 2 -13 4 24 3 82 -1 88 2 112
20 147 19 38 20 44 6 55 -42 35 -72 92 -72 136 0 40 -4 49 -40 80 -23 19 -56
59 -75 88 -19 30 -41 54 -48 54 -27 0 -96 62 -116 103 -27 56 -27 77 0 77 63
0 136 -65 185 -164 20 -39 37 -73 40 -76 3 -2 2 19 -2 48 -5 39 -3 52 6 52 39
0 -104 105 -205 151 -124 56 -292 73 -435 43z"/>
<path d="M3090 5656 c0 -2 7 -9 15 -16 9 -7 15 -8 15 -2 0 5 -7 12 -15 16 -8
3 -15 4 -15 2z"/>
<path d="M2288 5469 c-148 -35 -291 -153 -352 -291 -136 -308 40 -654 369
-723 94 -20 137 -19 229 5 106 27 170 63 246 140 280 282 149 765 -235 865
-64 16 -197 18 -257 4z m202 -172 l74 -144 121 -17 c66 -9 132 -16 148 -16 15
0 27 -6 27 -13 0 -7 -50 -62 -110 -122 -93 -93 -110 -114 -106 -135 3 -14 15
-78 27 -142 12 -65 19 -121 15 -125 -4 -4 -71 25 -149 64 -125 63 -144 70
-162 59 -57 -37 -237 -127 -242 -122 -6 6 0 55 28 237 l12 76 -74 71 c-41 38
-89 83 -106 100 -18 16 -33 34 -33 39 0 5 71 20 157 34 l157 24 65 137 c36 76
68 138 71 138 3 0 39 -65 80 -143z"/>
<path d="M2335 5159 c-71 -27 -134 -117 -135 -195 0 -55 43 -139 88 -169 20
-14 40 -25 44 -25 5 0 8 35 8 78 0 80 9 102 41 102 29 0 30 15 4 50 -33 44
-33 91 0 127 25 27 26 27 38 9 7 -10 24 -37 39 -60 30 -44 34 -75 17 -108 -9
-16 -7 -24 11 -43 15 -16 24 -40 27 -77 2 -29 6 -55 9 -57 2 -2 16 6 30 20 94
87 82 248 -23 323 -32 22 -54 29 -104 32 -35 2 -77 -1 -94 -7z"/>
<path d="M2385 4926 c-18 -13 -17 -15 15 -35 41 -25 41 -25 65 -7 16 12 17 16
6 29 -7 9 -19 13 -27 10 -8 -3 -14 0 -14 6 0 15 -22 14 -45 -3z"/>
<path d="M1812 5346 c-18 -30 -32 -59 -32 -65 0 -6 -4 -11 -8 -11 -18 0 -73
-200 -71 -260 0 -25 0 -25 9 -2 9 20 40 32 40 15 0 -5 14 -24 30 -43 l30 -35
-11 30 c-6 16 -21 44 -35 62 -18 24 -24 44 -24 83 0 62 20 107 64 148 25 23
35 41 40 77 3 27 5 50 3 51 -2 2 -17 -21 -35 -50z"/>
<path d="M3160 5360 c0 -5 5 -10 10 -10 6 0 10 5 10 10 0 6 -4 10 -10 10 -5 0
-10 -4 -10 -10z"/>
<path d="M1967 5320 c-14 -11 -30 -20 -36 -20 -6 0 -11 -3 -11 -8 0 -4 -12
-15 -27 -24 -20 -12 -23 -18 -11 -18 14 0 16 -7 12 -37 l-5 -38 26 50 c14 27
40 64 57 82 36 37 34 43 -5 13z"/>
<path d="M3014 5306 c3 -25 15 -49 31 -63 32 -30 31 -21 -6 47 l-30 55 5 -39z"/>
<path d="M3206 5321 c-4 -5 -2 -12 3 -15 5 -4 12 -2 15 3 4 5 2 12 -3 15 -5 4
-12 2 -15 -3z"/>
<path d="M3257 5283 c-13 -12 -7 -33 8 -33 8 0 15 9 15 20 0 20 -11 26 -23 13z"/>
<path d="M3202 5198 c-21 -21 -13 -29 21 -23 42 8 81 -25 74 -63 -5 -27 10
-72 25 -72 10 0 10 1 -3 77 -8 45 -17 68 -32 78 -26 18 -69 19 -85 3z"/>
<path d="M1843 5105 l-32 -34 17 -40 17 -40 8 37 c4 20 12 53 17 71 5 19 8 36
7 38 -2 1 -17 -13 -34 -32z"/>
<path d="M3098 5048 c-8 -13 -21 -34 -28 -48 -13 -24 -12 -25 7 -7 11 9 25 17
31 17 7 0 12 14 12 30 0 36 -3 37 -22 8z"/>
<path d="M1701 4933 c-3 -145 93 -367 206 -474 147 -140 347 -212 558 -201
l30 2 -30 20 c-16 11 -37 25 -46 32 -13 9 -22 7 -44 -10 -46 -36 -101 -22 -63
16 9 9 -7 12 -75 12 -102 0 -144 14 -176 59 -17 23 -30 31 -53 31 -38 0 -86
29 -116 69 -34 47 -30 63 16 55 20 -4 47 -11 60 -15 12 -5 22 -5 22 0 0 10
-54 31 -79 31 -9 0 -42 24 -73 54 -60 57 -68 76 -71 172 -2 35 -8 56 -24 73
-12 13 -26 47 -31 75 l-10 51 -1 -52z"/>
<path d="M3242 4918 c-14 -14 -16 -38 -3 -38 8 0 23 41 17 47 -1 1 -8 -3 -14
-9z"/>
<path d="M1841 4865 c-7 -16 -15 -45 -18 -64 -6 -32 -5 -33 16 -20 20 12 24
12 37 -5 17 -24 19 -13 2 17 -7 12 -15 40 -18 62 l-7 40 -12 -30z"/>
<path d="M3082 4840 c-27 -40 -33 -55 -27 -79 4 -17 1 -48 -5 -68 -14 -44 -56
-103 -73 -104 -7 0 -30 -9 -52 -19 -23 -11 -32 -18 -20 -18 67 4 72 -16 18
-61 -21 -18 -59 -35 -90 -42 -34 -8 -55 -18 -58 -29 -8 -25 -46 -65 -75 -81
-15 -7 -61 -13 -112 -13 -83 -1 -102 -6 -77 -22 6 -3 9 -15 6 -25 -6 -23 -7
-23 76 0 128 37 257 112 339 198 37 39 128 179 128 198 0 5 6 22 14 37 8 14
17 46 21 70 3 24 11 56 17 71 17 44 6 39 -30 -13z"/>
<path d="M3295 4870 c3 -5 8 -10 11 -10 2 0 4 5 4 10 0 6 -5 10 -11 10 -5 0
-7 -4 -4 -10z"/>
<path d="M1914 4684 c3 -9 6 -29 6 -45 0 -23 5 -30 28 -35 15 -4 34 -12 42
-18 13 -10 13 -9 0 9 -8 11 -21 26 -28 33 -7 8 -19 27 -27 43 -16 31 -31 40
-21 13z"/>
<path d="M2886 4672 c-8 -16 -28 -44 -42 -62 l-28 -32 41 20 c33 18 41 27 46
58 8 48 2 54 -17 16z"/>
<path d="M2775 4541 c-17 -15 -44 -35 -60 -44 -21 -11 -24 -16 -12 -17 24 0
21 -17 -9 -57 -14 -18 -21 -33 -16 -33 13 0 48 41 67 80 10 19 29 50 43 68 30
40 26 41 -13 3z"/>
<path d="M2067 4510 c3 -11 9 -23 14 -26 5 -3 9 -15 9 -27 1 -12 9 -32 19 -44
25 -30 37 -30 17 -1 -18 25 -22 73 -6 63 23 -14 7 5 -24 29 -31 23 -33 24 -29
6z"/>
<path d="M2990 4449 c0 -5 5 -7 10 -4 6 3 10 8 10 11 0 2 -4 4 -10 4 -5 0 -10
-5 -10 -11z"/>
<path d="M2256 4409 c20 -21 36 -29 52 -26 12 2 25 0 28 -4 3 -5 45 -9 93 -9
86 0 89 1 124 34 l35 33 -41 -15 c-58 -20 -219 -20 -276 1 l-43 15 28 -29z"/>
<path d="M2928 4422 c-1 -5 -28 -28 -58 -52 -59 -46 -187 -111 -259 -130 -32
-8 -41 -14 -32 -23 39 -39 381 140 381 200 0 14 -26 18 -32 5z"/>
<path d="M3020 4424 c0 -6 9 -19 21 -30 17 -16 22 -16 29 -4 6 8 10 21 10 28
0 10 -4 10 -20 0 -17 -11 -22 -10 -30 2 -5 8 -10 10 -10 4z"/>
<path d="M2870 4291 c0 -6 5 -13 10 -16 6 -3 10 1 10 9 0 9 -4 16 -10 16 -5 0
-10 -4 -10 -9z"/>
<path d="M2802 4241 c-18 -11 -11 -55 9 -59 12 -2 15 6 15 33 -1 37 -3 40 -24
26z"/>
<path d="M2510 4135 c0 -32 26 -43 48 -21 15 15 15 16 -7 16 -16 0 -21 4 -17
15 3 9 0 15 -9 15 -9 0 -15 -10 -15 -25z"/>
<path d="M1964 4094 c3 -9 6 -21 6 -27 0 -8 3 -8 11 0 13 13 5 43 -12 43 -6 0
-8 -7 -5 -16z"/>
<path d="M2095 4080 c3 -5 10 -10 16 -10 5 0 9 5 9 10 0 6 -7 10 -16 10 -8 0
-12 -4 -9 -10z"/>
<path d="M2245 3980 c-3 -5 3 -10 14 -10 12 0 21 5 21 10 0 6 -6 10 -14 10 -8
0 -18 -4 -21 -10z"/>
<path d="M1727 5583 c-12 -11 -8 -23 9 -23 8 0 27 -13 41 -30 21 -26 53 -41
53 -25 0 9 -79 85 -88 85 -5 0 -12 -3 -15 -7z"/>
<path d="M1670 5480 c0 -5 5 -10 10 -10 6 0 10 5 10 10 0 6 -4 10 -10 10 -5 0
-10 -4 -10 -10z"/>
<path d="M1704 5425 c-17 -13 -17 -14 -2 -15 9 0 20 5 23 11 11 17 0 20 -21 4z"/>
<path d="M1571 5336 c-15 -18 1 -30 30 -21 16 5 18 10 8 21 -15 18 -23 18 -38
0z"/>
<path d="M1511 5163 c-1 -6 -4 -18 -7 -27 -4 -11 -1 -16 10 -16 18 0 19 6 6
35 -5 11 -9 15 -9 8z"/>
<path d="M1500 5060 c0 -5 11 -10 25 -10 14 0 25 5 25 10 0 6 -11 10 -25 10
-14 0 -25 -4 -25 -10z"/>
<path d="M1490 4929 c0 -5 5 -7 10 -4 6 3 10 8 10 11 0 2 -4 4 -10 4 -5 0 -10
-5 -10 -11z"/>
<path d="M1526 4884 c-3 -8 -2 -13 3 -9 15 9 41 -6 41 -23 0 -12 3 -13 11 -5
6 6 8 20 4 32 -8 25 -50 29 -59 5z"/>
<path d="M1730 4427 c0 -8 7 -18 16 -21 11 -4 14 -1 12 11 -4 21 -28 30 -28
10z"/>
<path d="M2835 4090 c-8 -12 20 -24 35 -15 5 3 10 10 10 16 0 12 -37 12 -45
-1z"/>
<path d="M7615 6004 c-516 -56 -916 -413 -1021 -914 -23 -114 -23 -334 0 -445
51 -235 157 -426 328 -590 103 -100 169 -147 290 -207 164 -81 305 -112 503
-112 196 0 330 31 498 115 126 63 205 119 305 220 176 176 280 388 318 641 41
280 -27 566 -190 802 -168 244 -420 410 -712 470 -76 16 -252 27 -319 20z
m116 -54 c22 -12 24 -32 7 -60 -9 -14 -10 -22 -1 -31 8 -8 13 -6 18 10 3 12
13 21 21 21 17 0 18 -14 3 -42 -8 -14 -8 -23 0 -31 19 -19 12 -22 -50 -22 -48
0 -63 4 -75 19 -18 25 -18 40 1 56 9 8 13 21 9 32 -3 12 1 27 12 39 20 22 28
23 55 9z m-306 -112 c14 -21 14 -24 -2 -35 -9 -7 -25 -13 -35 -13 -10 0 -18
-4 -18 -10 0 -13 26 -13 52 1 17 9 19 8 16 -7 -2 -11 -17 -22 -37 -28 -30 -8
-36 -7 -52 13 -23 29 -24 59 -2 83 22 25 59 23 78 -4z m805 -14 c14 -10 31
-24 38 -32 33 -42 -6 -122 -59 -122 -24 0 -80 20 -97 35 -7 6 71 135 82 135 6
0 23 -7 36 -16z m-916 -56 c14 -29 26 -59 26 -68 0 -29 -59 -68 -82 -54 -5 3
4 15 21 25 17 10 31 23 31 29 0 13 -17 13 -25 0 -3 -5 -17 -10 -30 -10 -46 0
-74 82 -35 100 8 4 24 12 35 18 30 16 31 16 59 -40z m-137 -46 c40 -55 43 -63
26 -69 -10 -4 -24 -15 -31 -25 -17 -24 -43 -23 -70 2 -29 27 -29 73 0 92 19
13 21 18 10 31 -15 17 -7 40 10 35 6 -2 31 -32 55 -66z m1186 21 c9 -9 -13
-34 -24 -27 -14 8 -11 34 4 34 8 0 17 -3 20 -7z m-426 -52 c191 -55 345 -162
468 -325 48 -65 86 -142 121 -246 26 -79 28 -96 28 -245 0 -155 -1 -163 -33
-257 -80 -233 -225 -398 -443 -504 -505 -243 -1096 68 -1194 628 -50 283 67
593 293 783 89 74 245 151 360 176 114 25 293 20 400 -10z m393 -10 c-5 -9
-20 -29 -34 -46 -19 -23 -27 -27 -36 -18 -9 9 -5 22 20 58 25 37 34 44 46 34
9 -7 11 -16 4 -28z m80 -36 c19 -23 1 -39 -21 -19 -20 18 -23 12 -10 -21 10
-23 -4 -55 -23 -55 -7 0 -25 10 -40 21 -20 15 -24 25 -17 32 8 8 15 5 25 -9
19 -25 32 -11 18 20 -7 17 -7 27 1 35 16 16 52 14 67 -4z m-1339 -11 c11 -14
10 -19 -13 -39 -15 -13 -24 -26 -21 -29 4 -3 17 3 29 15 31 29 53 14 24 -16
-12 -13 -30 -25 -41 -28 -25 -7 -69 29 -69 55 0 48 62 76 91 42z m-100 -86
c39 -35 50 -51 42 -59 -14 -14 -28 -6 -87 48 -29 27 -43 48 -40 58 7 18 16 13
85 -47z m1523 13 c19 -21 3 -42 -17 -22 -30 30 -74 -12 -46 -45 8 -10 9 -18 2
-25 -7 -7 -17 -2 -32 17 -26 33 -26 49 -1 74 25 25 72 26 94 1z m81 -31 c11
-17 -5 -32 -21 -19 -7 6 -11 15 -8 20 7 12 21 11 29 -1z m-1615 -81 c14 -24
-12 -44 -39 -30 -31 17 -34 13 -12 -15 33 -42 14 -55 -52 -37 -62 18 -59 16
-51 36 5 15 9 15 41 2 49 -21 51 -19 19 14 -27 28 -28 58 -2 48 6 -2 22 -8 36
-12 l25 -7 -24 25 c-16 17 -21 32 -17 44 6 16 11 14 37 -17 16 -19 34 -42 39
-51z m1544 5 c-22 -18 -43 -32 -49 -30 -23 7 -12 33 28 63 36 28 43 30 51 16
6 -12 -1 -24 -30 -49z m76 -20 c0 -8 7 -17 15 -20 25 -10 19 -61 -9 -80 -40
-25 -69 -15 -93 34 0 2 -11 -3 -22 -10 -18 -11 -23 -11 -31 2 -7 12 5 24 57
57 67 42 83 45 83 17z m-1728 -97 c32 -25 23 -91 -13 -102 -49 -16 -97 23 -84
65 15 46 61 64 97 37z m1846 -5 c2 -6 -29 -27 -69 -47 -57 -29 -74 -34 -80
-23 -13 20 -12 21 59 55 69 32 83 35 90 15z m27 -72 c0 -22 -29 -18 -33 3 -3
14 1 18 15 15 10 -2 18 -10 18 -18z m-45 -14 c0 -13 -72 -46 -98 -46 -30 0 -8
29 36 47 49 21 62 21 62 -1z m-1887 -37 c28 -7 37 -15 35 -27 -3 -9 -10 -16
-18 -14 -67 15 -72 15 -68 -4 2 -11 17 -22 36 -28 29 -8 40 -24 26 -38 -3 -3
-27 1 -55 10 -49 16 -49 16 -43 51 11 62 22 68 87 50z m1914 -48 c7 -22 10
-47 7 -55 -5 -14 -61 -36 -91 -36 -28 0 -10 28 27 43 58 23 53 41 -10 33 -41
-5 -50 -4 -50 8 0 12 62 40 100 45 3 1 11 -17 17 -38z m-2031 -90 l25 -30 45
20 c55 23 54 23 54 4 0 -9 -18 -24 -41 -34 -43 -19 -42 -24 3 -35 20 -4 26
-11 21 -22 -5 -13 -16 -15 -62 -9 -76 9 -91 14 -91 32 0 11 8 14 30 11 37 -5
39 6 5 28 -15 10 -25 26 -25 40 0 31 6 30 36 -5z m2042 -27 c38 -26 25 -94
-19 -94 -18 0 -29 19 -29 51 0 12 -5 17 -11 14 -5 -4 -9 -18 -7 -33 4 -34 -18
-40 -26 -7 -9 36 1 65 27 75 32 13 40 12 65 -6z m-1884 -515 c12 -1 27 -1 34
0 19 3 14 -9 -13 -30 -21 -17 -23 -24 -14 -46 13 -34 4 -41 -21 -18 -20 18
-22 18 -49 2 -39 -23 -41 -22 -28 14 11 27 10 33 -10 49 -30 24 -29 30 8 30
25 0 33 6 42 31 l12 31 9 -31 c6 -21 15 -31 30 -32z m1855 -2 c37 2 39 -3 6
-28 -20 -17 -23 -24 -15 -45 16 -42 11 -49 -15 -24 -25 23 -26 23 -54 7 -39
-23 -41 -22 -28 13 11 28 9 32 -18 55 l-30 24 38 1 c24 0 39 5 42 15 16 50 17
50 30 15 11 -31 16 -35 44 -33z m-1566 -353 c-6 -18 -8 -17 -26 1 -14 13 -20
9 -57 -35 -34 -40 -45 -48 -56 -39 -11 9 -7 20 27 60 33 40 39 52 29 64 -6 8
-9 19 -5 25 9 15 95 -58 88 -76z m1270 14 c-18 -21 -18 -21 10 -14 54 13 78
-38 32 -68 -30 -20 -35 -20 -35 -2 0 8 7 16 15 20 28 10 16 26 -16 19 -21 -4
-34 -1 -40 8 -13 20 -11 27 11 49 27 27 48 15 23 -12z m-1228 -18 c3 -5 -2
-21 -11 -35 -14 -21 -14 -25 -1 -25 8 0 20 -7 28 -16 11 -13 10 -21 -6 -50
-23 -44 -37 -55 -54 -44 -11 6 -10 14 8 38 40 56 15 75 -30 21 -20 -25 -27
-28 -36 -17 -8 10 0 28 34 76 45 62 56 71 68 52z m1171 -36 c-5 -17 0 -34 14
-53 16 -24 18 -31 6 -40 -11 -9 -20 -3 -45 31 -30 41 -35 66 -12 61 6 -2 11 4
11 12 0 8 7 15 16 15 12 0 15 -6 10 -26z m-55 -60 c12 -14 9 -20 -16 -40 -20
-16 -25 -24 -14 -24 8 0 20 5 27 12 9 9 15 9 23 1 15 -15 -27 -43 -63 -43 -42
0 -66 68 -36 98 17 17 63 15 79 -4z m-996 -44 c15 -17 16 -24 7 -45 -12 -25
-13 -25 -43 -10 -39 20 -50 12 -15 -10 29 -19 34 -35 11 -35 -20 0 -65 45 -65
65 0 23 37 55 63 55 13 0 32 -9 42 -20z m889 -23 c9 -14 7 -21 -8 -32 -10 -8
-24 -16 -30 -18 -6 -2 -8 -7 -4 -11 3 -4 16 -2 28 4 15 8 25 9 32 2 7 -7 0
-16 -20 -26 -40 -21 -48 -20 -72 4 -39 39 -14 104 38 98 14 -2 30 -11 36 -21z
m-730 -57 c-3 -48 9 -68 20 -32 3 9 17 31 30 47 19 23 27 27 37 18 17 -17 -68
-134 -96 -130 -18 2 -20 11 -23 85 -3 79 -2 83 16 73 16 -9 19 -19 16 -61z
m576 51 c0 -5 10 -11 23 -15 17 -5 19 -8 8 -15 -20 -13 -6 -57 21 -65 23 -6
23 -7 3 -21 -25 -20 -37 -15 -54 21 -8 16 -21 34 -28 39 -11 8 -12 17 -4 38
10 25 31 38 31 18z m-320 -111 c0 -72 -2 -80 -19 -80 -13 0 -18 6 -16 18 2 9
4 45 4 80 1 48 4 62 16 62 12 0 15 -16 15 -80z m279 19 c15 -43 14 -56 -4 -63
-10 -4 -17 6 -25 34 -7 25 -17 40 -27 40 -12 0 -14 -8 -9 -44 5 -34 4 -45 -8
-49 -11 -5 -18 4 -25 31 -17 64 -17 77 -1 77 8 1 24 6 35 12 26 15 50 1 64
-38z m-355 5 c18 -18 20 -47 6 -75 -22 -39 -110 -16 -110 29 0 52 69 82 104
46z m218 -39 c1 -30 1 -55 -2 -56 -79 -12 -90 -10 -100 16 -6 15 -10 40 -10
56 0 22 5 29 19 29 16 0 20 -8 23 -37 2 -26 8 -38 18 -38 11 0 14 9 13 30 -4
39 3 55 21 55 10 0 15 -15 18 -55z"/>
<path d="M7697 5926 c-6 -15 1 -26 15 -26 11 0 10 27 -1 34 -5 3 -11 0 -14 -8z"/>
<path d="M7680 5845 c0 -16 27 -32 37 -21 7 7 -16 36 -28 36 -5 0 -9 -7 -9
-15z"/>
<path d="M7365 5829 c-10 -14 -1 -21 19 -13 9 3 13 10 10 15 -7 12 -21 11 -29
-2z"/>
<path d="M8181 5760 c-25 -45 -21 -60 14 -60 17 0 29 9 40 31 15 29 15 32 -1
50 -24 26 -27 25 -53 -21z"/>
<path d="M7237 5768 c-6 -19 11 -48 28 -48 16 0 19 18 9 44 -7 19 -30 21 -37
4z"/>
<path d="M7123 5703 c-19 -7 -16 -27 6 -47 15 -14 20 -14 30 -3 9 11 7 19 -6
35 -10 11 -24 18 -30 15z"/>
<path d="M7570 5443 c-85 -142 -175 -294 -200 -338 -42 -71 -253 -428 -338
-572 l-31 -53 362 0 362 0 -3 157 c-4 183 -14 162 133 256 50 32 122 80 160
107 55 38 73 46 84 37 8 -7 5 6 -8 31 -19 37 -359 622 -366 630 -1 1 -71 -113
-155 -255z"/>
<path d="M7380 4294 l0 -96 60 4 c88 6 123 45 81 87 -17 17 -18 21 -5 32 40
33 1 69 -77 69 l-59 0 0 -96z m95 46 c0 -8 -10 -16 -22 -18 -18 -3 -23 2 -23
18 0 16 5 21 23 18 12 -2 22 -10 22 -18z m1 -65 c19 -15 19 -15 0 -30 -31 -23
-46 -18 -46 15 0 33 15 38 46 15z"/>
<path d="M7570 4295 c0 -88 1 -95 20 -95 18 0 20 7 21 68 0 55 2 64 12 49 7
-10 26 -39 42 -64 18 -28 39 -48 53 -50 21 -3 22 -1 22 92 0 88 -1 95 -20 95
-18 0 -20 -7 -20 -62 l0 -63 -37 63 c-31 53 -41 62 -65 62 l-28 0 0 -95z"/>
<path d="M7808 4361 c-65 -58 -29 -148 63 -158 47 -4 76 7 65 26 -4 6 -20 11
-36 11 -41 0 -60 10 -71 36 -18 49 33 95 91 82 7 -2 16 5 18 15 3 14 -4 17
-47 17 -42 0 -56 -5 -83 -29z"/>
<path d="M7987 4370 c-53 -42 -41 -134 21 -159 41 -17 96 -11 100 12 3 14 -4
17 -36 17 -66 0 -95 57 -51 101 15 15 30 20 55 17 30 -3 44 6 44 28 0 2 -24 4
-54 4 -39 0 -60 -6 -79 -20z"/>
<path d="M7010 5604 c0 -14 3 -14 15 -4 8 7 15 14 15 16 0 2 -7 4 -15 4 -8 0
-15 -7 -15 -16z"/>
<path d="M8538 5399 c-22 -12 -23 -35 -4 -42 21 -8 50 17 43 37 -7 18 -15 20
-39 5z"/>
<path d="M6790 5310 c-13 -8 -12 -12 7 -31 18 -19 24 -20 38 -9 14 12 14 15
-1 31 -19 22 -23 22 -44 9z"/>
<path d="M8697 4999 c4 -13 9 -17 15 -11 11 11 3 32 -12 32 -4 0 -6 -9 -3 -21z"/>
<path d="M8220 4055 c-10 -12 -10 -15 3 -15 19 0 31 16 18 24 -5 3 -14 -1 -21
-9z"/>
<path d="M7236 4021 c-3 -5 1 -12 10 -15 20 -8 29 -1 19 13 -8 13 -22 14 -29
2z"/>
<path d="M8115 3999 c-10 -15 3 -25 16 -12 7 7 7 13 1 17 -6 3 -14 1 -17 -5z"/>
<path d="M7564 3896 c-9 -23 0 -51 16 -51 10 0 15 10 15 29 0 32 -21 47 -31
22z"/>
<path d="M3542 3046 c-12 -27 -22 -50 -22 -52 0 -2 18 -4 40 -4 45 0 47 6 21
65 l-18 40 -21 -49z"/>
<path d="M3890 3094 l0 -66 28 7 c60 15 81 66 42 105 -11 11 -31 20 -45 20
-24 0 -25 -2 -25 -66z"/>
</g>
</svg>
